<svg width="193" height="52" viewBox="0 0 193 52" fill="none" xmlns="http://www.w3.org/2000/svg">
<rect width="193" height="52" rx="5" fill="#23A6F0"/>
<path d="M47.8786 26.016H50.0766V29.488C49.1059 30.5707 47.7619 31.112 46.0446 31.112C44.6072 31.112 43.3986 30.636 42.4186 29.684C41.4479 28.732 40.9626 27.5327 40.9626 26.086C40.9626 24.63 41.4572 23.4167 42.4466 22.446C43.4452 21.4753 44.6446 20.99 46.0446 20.99C47.4539 20.99 48.6766 21.452 49.7126 22.376L48.5786 24.014C48.1399 23.6313 47.7339 23.37 47.3606 23.23C46.9966 23.0807 46.5999 23.006 46.1706 23.006C45.3399 23.006 44.6399 23.2907 44.0706 23.86C43.5012 24.42 43.2166 25.162 43.2166 26.086C43.2166 27.01 43.4872 27.752 44.0286 28.312C44.5792 28.8627 45.2326 29.138 45.9886 29.138C46.7446 29.138 47.3746 28.9933 47.8786 28.704V26.016ZM58.5366 29.908C57.6872 30.7107 56.6886 31.112 55.5406 31.112C54.4019 31.112 53.4592 30.762 52.7126 30.062C51.9659 29.3527 51.5926 28.4053 51.5926 27.22C51.5926 26.0347 51.9706 25.092 52.7266 24.392C53.4919 23.692 54.3926 23.342 55.4286 23.342C56.4646 23.342 57.3419 23.6547 58.0606 24.28C58.7886 24.9053 59.1526 25.764 59.1526 26.856V27.976H53.6646C53.7299 28.3867 53.9446 28.7227 54.3086 28.984C54.6726 29.2453 55.0832 29.376 55.5406 29.376C56.2779 29.376 56.8846 29.1287 57.3606 28.634L58.5366 29.908ZM57.0246 26.478C56.9779 26.03 56.8099 25.6847 56.5206 25.442C56.2312 25.1993 55.8766 25.078 55.4566 25.078C55.0459 25.078 54.6679 25.204 54.3226 25.456C53.9772 25.708 53.7766 26.0487 53.7206 26.478H57.0246ZM63.2908 24.98V28.354C63.2908 28.6433 63.3655 28.872 63.5148 29.04C63.6642 29.1987 63.8415 29.278 64.0468 29.278C64.4388 29.278 64.7702 29.1007 65.0408 28.746L65.8248 30.216C65.1715 30.8133 64.4808 31.112 63.7528 31.112C63.0342 31.112 62.4228 30.874 61.9188 30.398C61.4242 29.922 61.1768 29.2733 61.1768 28.452V24.98H60.2948V23.468H61.1768V21.214H63.2908V23.468H65.1108V24.98H63.2908ZM80.9682 26.044C80.9682 27.0613 80.7069 27.976 80.1842 28.788C79.6709 29.6 78.9756 30.2067 78.0982 30.608C78.1822 30.748 78.3129 30.8693 78.4902 30.972C78.6769 31.0653 78.8682 31.112 79.0642 31.112C79.2602 31.112 79.4516 31.0793 79.6382 31.014C79.8249 30.958 79.9742 30.888 80.0862 30.804C80.3289 30.608 80.5016 30.4167 80.6042 30.23L81.7382 31.588C80.9356 32.4373 79.9322 32.862 78.7282 32.862C78.1682 32.862 77.6176 32.708 77.0762 32.4C76.5349 32.092 76.1196 31.658 75.8302 31.098C74.3836 31.098 73.1656 30.6173 72.1762 29.656C71.1869 28.6853 70.6922 27.4813 70.6922 26.044C70.6922 24.6067 71.1869 23.4073 72.1762 22.446C73.1656 21.4753 74.3836 20.99 75.8302 20.99C77.2769 20.99 78.4949 21.4753 79.4842 22.446C80.4736 23.4073 80.9682 24.6067 80.9682 26.044ZM78.7422 26.058C78.7422 25.1807 78.4622 24.434 77.9022 23.818C77.3422 23.202 76.6516 22.894 75.8302 22.894C75.0182 22.894 74.3322 23.202 73.7722 23.818C73.2122 24.434 72.9322 25.1807 72.9322 26.058C72.9322 26.926 73.2122 27.668 73.7722 28.284C74.3322 28.8907 75.0182 29.194 75.8302 29.194C76.6516 29.194 77.3422 28.8907 77.9022 28.284C78.4622 27.668 78.7422 26.926 78.7422 26.058ZM87.6803 27.528V23.468H89.7943V31H87.6803V30.006C87.1577 30.7433 86.481 31.112 85.6503 31.112C84.829 31.112 84.1383 30.8553 83.5783 30.342C83.0183 29.8193 82.7383 29.0493 82.7383 28.032V23.468H84.8523V27.57C84.8523 28.7273 85.277 29.306 86.1263 29.306C86.5463 29.306 86.9103 29.1567 87.2183 28.858C87.5263 28.55 87.6803 28.1067 87.6803 27.528ZM93.6574 27.234C93.6574 27.85 93.8301 28.354 94.1754 28.746C94.5301 29.1287 94.9781 29.32 95.5194 29.32C96.0701 29.32 96.5181 29.1287 96.8634 28.746C97.2181 28.354 97.3954 27.85 97.3954 27.234C97.3954 26.618 97.2181 26.114 96.8634 25.722C96.5181 25.33 96.0701 25.134 95.5194 25.134C94.9781 25.134 94.5301 25.33 94.1754 25.722C93.8301 26.114 93.6574 26.618 93.6574 27.234ZM99.5094 27.234C99.5094 28.326 99.1314 29.2453 98.3754 29.992C97.6194 30.7387 96.6674 31.112 95.5194 31.112C94.3807 31.112 93.4334 30.7387 92.6774 29.992C91.9214 29.2453 91.5434 28.326 91.5434 27.234C91.5434 26.142 91.9214 25.2227 92.6774 24.476C93.4334 23.72 94.3807 23.342 95.5194 23.342C96.6674 23.342 97.6194 23.72 98.3754 24.476C99.1314 25.2227 99.5094 26.142 99.5094 27.234ZM103.638 24.98V28.354C103.638 28.6433 103.713 28.872 103.862 29.04C104.012 29.1987 104.189 29.278 104.394 29.278C104.786 29.278 105.118 29.1007 105.388 28.746L106.172 30.216C105.519 30.8133 104.828 31.112 104.1 31.112C103.382 31.112 102.77 30.874 102.266 30.398C101.772 29.922 101.524 29.2733 101.524 28.452V24.98H100.642V23.468H101.524V21.214H103.638V23.468H105.458V24.98H103.638ZM114.022 29.908C113.173 30.7107 112.174 31.112 111.026 31.112C109.888 31.112 108.945 30.762 108.198 30.062C107.452 29.3527 107.078 28.4053 107.078 27.22C107.078 26.0347 107.456 25.092 108.212 24.392C108.978 23.692 109.878 23.342 110.914 23.342C111.95 23.342 112.828 23.6547 113.546 24.28C114.274 24.9053 114.638 25.764 114.638 26.856V27.976H109.15C109.216 28.3867 109.43 28.7227 109.794 28.984C110.158 29.2453 110.569 29.376 111.026 29.376C111.764 29.376 112.37 29.1287 112.846 28.634L114.022 29.908ZM112.51 26.478C112.464 26.03 112.296 25.6847 112.006 25.442C111.717 25.1993 111.362 25.078 110.942 25.078C110.532 25.078 110.154 25.204 109.808 25.456C109.463 25.708 109.262 26.0487 109.206 26.478H112.51ZM127.3 21.214H129.484V31H127.3L122.638 24.868V31H120.454V21.214H122.498L127.3 27.514V21.214ZM133.568 27.234C133.568 27.85 133.74 28.354 134.086 28.746C134.44 29.1287 134.888 29.32 135.43 29.32C135.98 29.32 136.428 29.1287 136.774 28.746C137.128 28.354 137.306 27.85 137.306 27.234C137.306 26.618 137.128 26.114 136.774 25.722C136.428 25.33 135.98 25.134 135.43 25.134C134.888 25.134 134.44 25.33 134.086 25.722C133.74 26.114 133.568 26.618 133.568 27.234ZM139.42 27.234C139.42 28.326 139.042 29.2453 138.286 29.992C137.53 30.7387 136.578 31.112 135.43 31.112C134.291 31.112 133.344 30.7387 132.588 29.992C131.832 29.2453 131.454 28.326 131.454 27.234C131.454 26.142 131.832 25.2227 132.588 24.476C133.344 23.72 134.291 23.342 135.43 23.342C136.578 23.342 137.53 23.72 138.286 24.476C139.042 25.2227 139.42 26.142 139.42 27.234ZM144.963 31H142.793L140.231 23.468H142.401L143.871 28.018L145.341 23.468H147.371L148.841 28.018L150.311 23.468H152.495L149.933 31H147.749L146.363 26.898L144.963 31Z" fill="white"/>
</svg>
