<svg width="313" height="74" viewBox="0 0 313 74" fill="none" xmlns="http://www.w3.org/2000/svg">
<rect x="1" y="0.5" width="82" height="73" fill="#F3F3F3"/>
<rect x="1" y="0.5" width="82" height="73" stroke="#BDBDBD"/>
<path d="M33.651 32.214V34.132H29.115V36.246H33.427V38.164H29.115V42H26.931V32.214H33.651ZM37.5932 42H35.4932V34.468H37.5932V42ZM35.6612 33.516C35.4279 33.2733 35.3112 32.9793 35.3112 32.634C35.3112 32.2887 35.4279 31.9993 35.6612 31.766C35.9039 31.5233 36.1979 31.402 36.5432 31.402C36.8886 31.402 37.1779 31.5233 37.4112 31.766C37.6539 31.9993 37.7752 32.2887 37.7752 32.634C37.7752 32.9793 37.6539 33.2733 37.4112 33.516C37.1779 33.7493 36.8886 33.866 36.5432 33.866C36.1979 33.866 35.9039 33.7493 35.6612 33.516ZM43.7431 36.316C43.1178 36.316 42.6511 36.54 42.3431 36.988C42.0351 37.4267 41.8811 38.01 41.8811 38.738V42H39.7811V34.468H41.8811V35.462C42.1518 35.154 42.4878 34.8927 42.8891 34.678C43.2998 34.4633 43.7151 34.3513 44.1351 34.342L44.1491 36.316H43.7431ZM51.3523 39.662C51.3523 40.3993 51.0769 40.992 50.5263 41.44C49.9849 41.888 49.2943 42.112 48.4543 42.112C47.8943 42.112 47.3109 42.014 46.7043 41.818C46.0976 41.6127 45.5516 41.314 45.0663 40.922L45.9903 39.606C46.7743 40.2127 47.6096 40.516 48.4963 40.516C48.7669 40.516 48.9816 40.4647 49.1403 40.362C49.2989 40.25 49.3783 40.1053 49.3783 39.928C49.3783 39.7507 49.2663 39.5873 49.0423 39.438C48.8276 39.2887 48.5103 39.1487 48.0903 39.018C47.6796 38.8873 47.3623 38.7753 47.1383 38.682C46.9236 38.5887 46.6763 38.4533 46.3963 38.276C45.8269 37.9213 45.5423 37.3987 45.5423 36.708C45.5423 36.008 45.8223 35.4387 46.3823 35C46.9423 34.5613 47.6656 34.342 48.5523 34.342C49.4389 34.342 50.3256 34.6407 51.2123 35.238L50.4283 36.638C49.7749 36.19 49.1216 35.966 48.4683 35.966C47.8243 35.966 47.5023 36.1433 47.5023 36.498C47.5023 36.694 47.6049 36.848 47.8103 36.96C48.0156 37.072 48.3563 37.2027 48.8323 37.352C49.3083 37.5013 49.6443 37.618 49.8403 37.702C50.0456 37.7767 50.2883 37.898 50.5683 38.066C51.0909 38.3833 51.3523 38.9153 51.3523 39.662ZM55.607 35.98V39.354C55.607 39.6433 55.6817 39.872 55.831 40.04C55.9804 40.1987 56.1577 40.278 56.363 40.278C56.755 40.278 57.0864 40.1007 57.357 39.746L58.141 41.216C57.4877 41.8133 56.797 42.112 56.069 42.112C55.3504 42.112 54.739 41.874 54.235 41.398C53.7404 40.922 53.493 40.2733 53.493 39.452V35.98H52.611V34.468H53.493V32.214H55.607V34.468H57.427V35.98H55.607Z" fill="#BDBDBD"/>
<rect x="84" y="0.5" width="45" height="73" fill="white"/>
<rect x="84" y="0.5" width="45" height="73" stroke="#E9E9E9"/>
<path d="M104.111 32.214H108.073V42H105.973V34.076H104.111V32.214Z" fill="#23A6F0"/>
<rect x="130" y="0.5" width="48" height="73" fill="#23A6F0"/>
<rect x="130" y="0.5" width="48" height="73" stroke="#E9E9E9"/>
<path d="M153.444 37.436C154.022 36.848 154.433 36.3813 154.676 36.036C154.928 35.6813 155.054 35.3407 155.054 35.014C155.054 34.6873 154.946 34.4167 154.732 34.202C154.517 33.978 154.242 33.866 153.906 33.866C153.29 33.866 152.706 34.3047 152.156 35.182L150.406 34.146C150.863 33.4367 151.362 32.9 151.904 32.536C152.454 32.172 153.15 31.99 153.99 31.99C154.839 31.99 155.581 32.2607 156.216 32.802C156.86 33.334 157.182 34.062 157.182 34.986C157.182 35.49 157.051 35.9753 156.79 36.442C156.538 36.8993 156.066 37.4873 155.376 38.206L153.612 40.04H157.476V42H150.574V40.376L153.444 37.436Z" fill="white"/>
<rect x="179" y="0.5" width="48" height="73" fill="white"/>
<rect x="179" y="0.5" width="48" height="73" stroke="#E9E9E9"/>
<path d="M199.914 34.076V32.214H205.906V33.726L203.904 36.008C204.688 36.1387 205.295 36.47 205.724 37.002C206.154 37.5247 206.368 38.1313 206.368 38.822C206.368 39.8487 206.018 40.656 205.318 41.244C204.628 41.8227 203.741 42.112 202.658 42.112C201.576 42.112 200.479 41.7293 199.368 40.964L200.264 39.228C201.188 39.8813 202.014 40.208 202.742 40.208C203.181 40.208 203.54 40.1007 203.82 39.886C204.11 39.6713 204.254 39.3633 204.254 38.962C204.254 38.5513 204.091 38.2293 203.764 37.996C203.438 37.7533 202.985 37.632 202.406 37.632C202.098 37.632 201.664 37.7207 201.104 37.898V36.288L202.98 34.076H199.914Z" fill="#23A6F0"/>
<rect x="228" y="0.5" width="84" height="73" fill="white"/>
<rect x="228" y="0.5" width="84" height="73" stroke="#E8E8E8"/>
<path d="M260.626 32.214H262.81V42H260.626L255.964 35.868V42H253.78V32.214H255.824L260.626 38.514V32.214ZM271.737 40.908C270.888 41.7107 269.889 42.112 268.741 42.112C267.603 42.112 266.66 41.762 265.913 41.062C265.167 40.3527 264.793 39.4053 264.793 38.22C264.793 37.0347 265.171 36.092 265.927 35.392C266.693 34.692 267.593 34.342 268.629 34.342C269.665 34.342 270.543 34.6547 271.261 35.28C271.989 35.9053 272.353 36.764 272.353 37.856V38.976H266.865C266.931 39.3867 267.145 39.7227 267.509 39.984C267.873 40.2453 268.284 40.376 268.741 40.376C269.479 40.376 270.085 40.1287 270.561 39.634L271.737 40.908ZM270.225 37.478C270.179 37.03 270.011 36.6847 269.721 36.442C269.432 36.1993 269.077 36.078 268.657 36.078C268.247 36.078 267.869 36.204 267.523 36.456C267.178 36.708 266.977 37.0487 266.921 37.478H270.225ZM275.697 34.468L276.985 36.484L278.315 34.468H280.779L278.189 38.15L280.877 42H278.371L276.901 39.928L275.473 42H273.051L275.683 38.164L273.191 34.468H275.697ZM284.758 35.98V39.354C284.758 39.6433 284.833 39.872 284.982 40.04C285.131 40.1987 285.309 40.278 285.514 40.278C285.906 40.278 286.237 40.1007 286.508 39.746L287.292 41.216C286.639 41.8133 285.948 42.112 285.22 42.112C284.501 42.112 283.89 41.874 283.386 41.398C282.891 40.922 282.644 40.2733 282.644 39.452V35.98H281.762V34.468H282.644V32.214H284.758V34.468H286.578V35.98H284.758Z" fill="#23A6F0"/>
</svg>
