<svg width="222" height="24" viewBox="0 0 222 24" fill="none" xmlns="http://www.w3.org/2000/svg">
<g clip-path="url(#clip0_3010_29302)">
<path d="M20.1308 8.41927C20.0732 8.24946 19.967 8.10025 19.8256 7.99006C19.6841 7.87987 19.5134 7.81353 19.3347 7.79922L14.1055 7.38371L11.8427 2.3747C11.7706 2.21337 11.6534 2.07634 11.5052 1.98016C11.357 1.88397 11.1841 1.83274 11.0074 1.83264C10.8307 1.83254 10.6577 1.88359 10.5094 1.97961C10.3611 2.07563 10.2437 2.21253 10.1715 2.37378L7.90867 7.38371L2.67951 7.79922C2.50382 7.81314 2.33586 7.87738 2.19572 7.98425C2.05559 8.09113 1.94921 8.23612 1.88931 8.40187C1.82941 8.56762 1.81854 8.74712 1.85799 8.91889C1.89744 9.09066 1.98553 9.24743 2.11175 9.37044L5.97605 13.1375L4.60937 19.0555C4.56788 19.2347 4.58118 19.4221 4.64755 19.5936C4.71392 19.7651 4.8303 19.9127 4.98159 20.0172C5.13288 20.1217 5.31208 20.1783 5.49596 20.1797C5.67983 20.1811 5.85988 20.1272 6.01274 20.025L11.0071 16.6955L16.0014 20.025C16.1577 20.1288 16.3419 20.1822 16.5294 20.1781C16.7169 20.1739 16.8986 20.1125 17.0502 20.002C17.2017 19.8916 17.3158 19.7373 17.3771 19.5601C17.4383 19.3828 17.4438 19.1911 17.3929 19.0106L15.7152 13.1403L19.8758 9.39612C20.1482 9.15031 20.2482 8.7669 20.1308 8.41927Z" fill="#F3CD03"/>
<path d="M47.1457 8.41927C47.0881 8.24946 46.9819 8.10025 46.8404 7.99006C46.699 7.87987 46.5283 7.81353 46.3495 7.79922L41.1204 7.38371L38.8576 2.3747C38.7855 2.21337 38.6683 2.07634 38.5201 1.98016C38.3719 1.88397 38.199 1.83274 38.0223 1.83264C37.8456 1.83254 37.6726 1.88359 37.5243 1.97961C37.376 2.07563 37.2586 2.21253 37.1864 2.37378L34.9236 7.38371L29.6944 7.79922C29.5187 7.81314 29.3508 7.87738 29.2106 7.98425C29.0705 8.09113 28.9641 8.23612 28.9042 8.40187C28.8443 8.56762 28.8334 8.74712 28.8729 8.91889C28.9123 9.09066 29.0004 9.24743 29.1266 9.37044L32.9909 13.1375L31.6243 19.0555C31.5828 19.2347 31.5961 19.4221 31.6624 19.5936C31.7288 19.7651 31.8452 19.9127 31.9965 20.0172C32.1478 20.1217 32.327 20.1783 32.5109 20.1797C32.6947 20.1811 32.8748 20.1272 33.0276 20.025L38.022 16.6955L43.0163 20.025C43.1726 20.1288 43.3568 20.1822 43.5443 20.1781C43.7318 20.1739 43.9135 20.1125 44.0651 20.002C44.2166 19.8916 44.3307 19.7373 44.392 19.5601C44.4532 19.3828 44.4587 19.1911 44.4078 19.0106L42.7301 13.1403L46.8907 9.39612C47.1631 9.15031 47.2631 8.7669 47.1457 8.41927Z" fill="#F3CD03"/>
<path d="M74.1569 8.41927C74.0993 8.24946 73.9932 8.10025 73.8517 7.99006C73.7102 7.87987 73.5395 7.81353 73.3608 7.79922L68.1316 7.38371L65.8688 2.3747C65.7967 2.21337 65.6795 2.07634 65.5313 1.98016C65.3831 1.88397 65.2102 1.83274 65.0335 1.83264C64.8568 1.83254 64.6839 1.88359 64.5355 1.97961C64.3872 2.07563 64.2698 2.21253 64.1976 2.37378L61.9348 7.38371L56.7056 7.79922C56.5299 7.81314 56.362 7.87738 56.2218 7.98425C56.0817 8.09113 55.9753 8.23612 55.9154 8.40187C55.8555 8.56762 55.8447 8.74712 55.8841 8.91889C55.9236 9.09066 56.0117 9.24743 56.1379 9.37044L60.0022 13.1375L58.6355 19.0555C58.594 19.2347 58.6073 19.4221 58.6737 19.5936C58.74 19.7651 58.8564 19.9127 59.0077 20.0172C59.159 20.1217 59.3382 20.1783 59.5221 20.1797C59.706 20.1811 59.886 20.1272 60.0389 20.025L65.0332 16.6955L70.0275 20.025C70.1838 20.1288 70.368 20.1822 70.5555 20.1781C70.743 20.1739 70.9248 20.1125 71.0763 20.002C71.2278 19.8916 71.3419 19.7373 71.4032 19.5601C71.4644 19.3828 71.47 19.1911 71.419 19.0106L69.7414 13.1403L73.9019 9.39612C74.1744 9.15031 74.2743 8.7669 74.1569 8.41927Z" fill="#F3CD03"/>
<path d="M101.171 8.41927C101.113 8.24946 101.007 8.10025 100.865 7.99006C100.724 7.87987 100.553 7.81353 100.374 7.79922L95.1453 7.38371L92.8825 2.3747C92.8104 2.21337 92.6932 2.07634 92.545 1.98016C92.3968 1.88397 92.2239 1.83274 92.0472 1.83264C91.8705 1.83254 91.6975 1.88359 91.5492 1.97961C91.4009 2.07563 91.2835 2.21253 91.2113 2.37378L88.9485 7.38371L83.7193 7.79922C83.5436 7.81314 83.3757 7.87738 83.2355 7.98425C83.0954 8.09113 82.989 8.23612 82.9291 8.40187C82.8692 8.56762 82.8583 8.74712 82.8978 8.91889C82.9372 9.09066 83.0253 9.24743 83.1515 9.37044L87.0158 13.1375L85.6492 19.0555C85.6077 19.2347 85.621 19.4221 85.6873 19.5936C85.7537 19.7651 85.8701 19.9127 86.0214 20.0172C86.1727 20.1217 86.3519 20.1783 86.5358 20.1797C86.7196 20.1811 86.8997 20.1272 87.0525 20.025L92.0469 16.6955L97.0412 20.025C97.1975 20.1288 97.3817 20.1822 97.5692 20.1781C97.7567 20.1739 97.9384 20.1125 98.09 20.002C98.2415 19.8916 98.3556 19.7373 98.4169 19.5601C98.4781 19.3828 98.4836 19.1911 98.4327 19.0106L96.755 13.1403L100.916 9.39612C101.188 9.15031 101.288 8.7669 101.171 8.41927Z" fill="#F3CD03"/>
<path d="M114.032 13.1377L112.665 19.0557C112.623 19.2349 112.635 19.4227 112.701 19.5945C112.768 19.7664 112.884 19.9143 113.035 20.0191C113.187 20.1238 113.366 20.1804 113.55 20.1814C113.735 20.1825 113.915 20.1281 114.067 20.0252L119.062 16.6956L124.056 20.0252C124.212 20.1289 124.397 20.1823 124.584 20.1782C124.772 20.1741 124.953 20.1127 125.105 20.0022C125.256 19.8917 125.37 19.7375 125.432 19.5602C125.493 19.383 125.499 19.1912 125.448 19.0107L123.77 13.1404L127.931 9.39628C128.064 9.27629 128.159 9.11988 128.204 8.94638C128.25 8.77289 128.243 8.58992 128.185 8.4201C128.128 8.25029 128.022 8.10107 127.88 7.99091C127.739 7.88075 127.568 7.81448 127.389 7.80029L122.16 7.38386L119.897 2.37485C119.825 2.21356 119.708 2.0766 119.56 1.98049C119.411 1.88439 119.238 1.83325 119.062 1.83325C118.885 1.83325 118.712 1.88439 118.564 1.98049C118.416 2.0766 118.298 2.21356 118.226 2.37485L115.963 7.38386L110.734 7.79937C110.559 7.81329 110.391 7.87753 110.25 7.98441C110.11 8.09128 110.004 8.23627 109.944 8.40202C109.884 8.56777 109.873 8.74727 109.913 8.91904C109.952 9.09081 110.04 9.24758 110.166 9.37059L114.032 13.1377ZM116.649 9.16972C116.812 9.15682 116.969 9.10012 117.104 9.00555C117.238 8.91098 117.344 8.78203 117.412 8.63222L119.062 4.98071L120.712 8.63222C120.779 8.78203 120.886 8.91098 121.02 9.00555C121.154 9.10012 121.311 9.15682 121.475 9.16972L125.118 9.45865L122.118 12.159C121.857 12.3938 121.754 12.7552 121.849 13.0927L122.999 17.1148L119.572 14.83C119.421 14.729 119.244 14.6751 119.063 14.6751C118.882 14.6751 118.705 14.729 118.555 14.83L114.974 17.2175L115.937 13.0478C115.972 12.8944 115.967 12.7346 115.923 12.5836C115.879 12.4326 115.796 12.2955 115.684 12.1856L112.897 9.46874L116.649 9.16972Z" fill="#F3CD03"/>
</g>
<path d="M140.502 7.214H144.464V17H142.364V9.076H140.502V7.214ZM149.303 9.692C148.995 10.2893 148.841 11.078 148.841 12.058C148.841 13.038 148.995 13.8267 149.303 14.424C149.611 15.0213 150.091 15.32 150.745 15.32C151.398 15.32 151.879 15.0213 152.187 14.424C152.495 13.8267 152.649 13.038 152.649 12.058C152.649 11.078 152.495 10.2893 152.187 9.692C151.879 9.09467 151.398 8.796 150.745 8.796C150.091 8.796 149.611 9.09467 149.303 9.692ZM150.745 17.112C149.391 17.112 148.379 16.6547 147.707 15.74C147.035 14.816 146.699 13.5887 146.699 12.058C146.699 10.518 147.035 9.29067 147.707 8.376C148.379 7.452 149.391 6.99 150.745 6.99C152.098 6.99 153.111 7.452 153.783 8.376C154.455 9.29067 154.791 10.518 154.791 12.058C154.791 13.5887 154.455 14.816 153.783 15.74C153.111 16.6547 152.098 17.112 150.745 17.112ZM168.814 10.462C168.814 12.03 168.193 13.0427 166.952 13.5L169.43 17H166.742L164.572 13.878H163.06V17H160.876V7.214H164.586C166.107 7.214 167.19 7.47067 167.834 7.984C168.487 8.49733 168.814 9.32333 168.814 10.462ZM164.656 11.988C165.403 11.988 165.911 11.8667 166.182 11.624C166.453 11.3813 166.588 10.9987 166.588 10.476C166.588 9.944 166.448 9.58 166.168 9.384C165.888 9.188 165.398 9.09 164.698 9.09H163.06V11.988H164.656ZM177.562 15.908C176.713 16.7107 175.714 17.112 174.566 17.112C173.427 17.112 172.485 16.762 171.738 16.062C170.991 15.3527 170.618 14.4053 170.618 13.22C170.618 12.0347 170.996 11.092 171.752 10.392C172.517 9.692 173.418 9.342 174.454 9.342C175.49 9.342 176.367 9.65467 177.086 10.28C177.814 10.9053 178.178 11.764 178.178 12.856V13.976H172.69C172.755 14.3867 172.97 14.7227 173.334 14.984C173.698 15.2453 174.109 15.376 174.566 15.376C175.303 15.376 175.91 15.1287 176.386 14.634L177.562 15.908ZM176.05 12.478C176.003 12.03 175.835 11.6847 175.546 11.442C175.257 11.1993 174.902 11.078 174.482 11.078C174.071 11.078 173.693 11.204 173.348 11.456C173.003 11.708 172.802 12.0487 172.746 12.478H176.05ZM181.813 17L178.831 9.454H181.015L182.891 14.2L184.767 9.454H186.951L183.969 17H181.813ZM190.286 17H188.186V9.468H190.286V17ZM188.354 8.516C188.121 8.27333 188.004 7.97933 188.004 7.634C188.004 7.28867 188.121 6.99933 188.354 6.766C188.597 6.52333 188.891 6.402 189.236 6.402C189.581 6.402 189.871 6.52333 190.104 6.766C190.347 6.99933 190.468 7.28867 190.468 7.634C190.468 7.97933 190.347 8.27333 190.104 8.516C189.871 8.74933 189.581 8.866 189.236 8.866C188.891 8.866 188.597 8.74933 188.354 8.516ZM198.998 15.908C198.149 16.7107 197.15 17.112 196.002 17.112C194.863 17.112 193.921 16.762 193.174 16.062C192.427 15.3527 192.054 14.4053 192.054 13.22C192.054 12.0347 192.432 11.092 193.188 10.392C193.953 9.692 194.854 9.342 195.89 9.342C196.926 9.342 197.803 9.65467 198.522 10.28C199.25 10.9053 199.614 11.764 199.614 12.856V13.976H194.126C194.191 14.3867 194.406 14.7227 194.77 14.984C195.134 15.2453 195.545 15.376 196.002 15.376C196.739 15.376 197.346 15.1287 197.822 14.634L198.998 15.908ZM197.486 12.478C197.439 12.03 197.271 11.6847 196.982 11.442C196.693 11.1993 196.338 11.078 195.918 11.078C195.507 11.078 195.129 11.204 194.784 11.456C194.439 11.708 194.238 12.0487 194.182 12.478H197.486ZM205.18 17H203.01L200.448 9.468H202.618L204.088 14.018L205.558 9.468H207.588L209.058 14.018L210.528 9.468H212.712L210.15 17H207.966L206.58 12.898L205.18 17ZM219.653 14.662C219.653 15.3993 219.378 15.992 218.827 16.44C218.286 16.888 217.595 17.112 216.755 17.112C216.195 17.112 215.612 17.014 215.005 16.818C214.399 16.6127 213.853 16.314 213.367 15.922L214.291 14.606C215.075 15.2127 215.911 15.516 216.797 15.516C217.068 15.516 217.283 15.4647 217.441 15.362C217.6 15.25 217.679 15.1053 217.679 14.928C217.679 14.7507 217.567 14.5873 217.343 14.438C217.129 14.2887 216.811 14.1487 216.391 14.018C215.981 13.8873 215.663 13.7753 215.439 13.682C215.225 13.5887 214.977 13.4533 214.697 13.276C214.128 12.9213 213.843 12.3987 213.843 11.708C213.843 11.008 214.123 10.4387 214.683 10C215.243 9.56133 215.967 9.342 216.853 9.342C217.74 9.342 218.627 9.64067 219.513 10.238L218.729 11.638C218.076 11.19 217.423 10.966 216.769 10.966C216.125 10.966 215.803 11.1433 215.803 11.498C215.803 11.694 215.906 11.848 216.111 11.96C216.317 12.072 216.657 12.2027 217.133 12.352C217.609 12.5013 217.945 12.618 218.141 12.702C218.347 12.7767 218.589 12.898 218.869 13.066C219.392 13.3833 219.653 13.9153 219.653 14.662Z" fill="#737373"/>
<defs>
<clipPath id="clip0_3010_29302">
<rect width="130.068" height="22.0136" fill="white"/>
</clipPath>
</defs>
</svg>
