<svg width="148" height="44" viewBox="0 0 148 44" fill="none" xmlns="http://www.w3.org/2000/svg">
<rect width="148" height="44" rx="5" fill="#23A6F0"/>
<path d="M24.7249 18.908C24.3609 18.908 24.0716 18.9967 23.8569 19.174C23.6516 19.342 23.5489 19.5707 23.5489 19.86C23.5489 20.14 23.6749 20.364 23.9269 20.532C24.1882 20.7 24.7809 20.9007 25.7049 21.134C26.6382 21.358 27.3616 21.6987 27.8749 22.156C28.3882 22.6133 28.6449 23.2807 28.6449 24.158C28.6449 25.0353 28.3136 25.7493 27.6509 26.3C26.9976 26.8413 26.1342 27.112 25.0609 27.112C23.5116 27.112 22.1162 26.538 20.8749 25.39L22.1769 23.794C23.2316 24.718 24.2069 25.18 25.1029 25.18C25.5042 25.18 25.8169 25.096 26.0409 24.928C26.2742 24.7507 26.3909 24.5173 26.3909 24.228C26.3909 23.9293 26.2696 23.696 26.0269 23.528C25.7842 23.3507 25.3036 23.1733 24.5849 22.996C23.4462 22.7253 22.6109 22.3753 22.0789 21.946C21.5562 21.5073 21.2949 20.826 21.2949 19.902C21.2949 18.9687 21.6262 18.25 22.2889 17.746C22.9609 17.242 23.7962 16.99 24.7949 16.99C25.4482 16.99 26.1016 17.102 26.7549 17.326C27.4082 17.55 27.9776 17.8673 28.4629 18.278L27.3569 19.874C26.5076 19.23 25.6302 18.908 24.7249 18.908ZM37.0166 25.908C36.1673 26.7107 35.1686 27.112 34.0206 27.112C32.882 27.112 31.9393 26.762 31.1926 26.062C30.446 25.3527 30.0726 24.4053 30.0726 23.22C30.0726 22.0347 30.4506 21.092 31.2066 20.392C31.972 19.692 32.8726 19.342 33.9086 19.342C34.9446 19.342 35.822 19.6547 36.5406 20.28C37.2686 20.9053 37.6326 21.764 37.6326 22.856V23.976H32.1446C32.21 24.3867 32.4246 24.7227 32.7886 24.984C33.1526 25.2453 33.5633 25.376 34.0206 25.376C34.758 25.376 35.3646 25.1287 35.8406 24.634L37.0166 25.908ZM35.5046 22.478C35.458 22.03 35.29 21.6847 35.0006 21.442C34.7113 21.1993 34.3566 21.078 33.9366 21.078C33.526 21.078 33.148 21.204 32.8026 21.456C32.4573 21.708 32.2566 22.0487 32.2006 22.478H35.5046ZM41.4469 27H39.3469V16.612H41.4469V27ZM50.1588 25.908C49.3095 26.7107 48.3108 27.112 47.1628 27.112C46.0242 27.112 45.0815 26.762 44.3348 26.062C43.5882 25.3527 43.2148 24.4053 43.2148 23.22C43.2148 22.0347 43.5928 21.092 44.3488 20.392C45.1142 19.692 46.0148 19.342 47.0508 19.342C48.0868 19.342 48.9642 19.6547 49.6828 20.28C50.4108 20.9053 50.7748 21.764 50.7748 22.856V23.976H45.2868C45.3522 24.3867 45.5668 24.7227 45.9308 24.984C46.2948 25.2453 46.7055 25.376 47.1628 25.376C47.9002 25.376 48.5068 25.1287 48.9828 24.634L50.1588 25.908ZM48.6468 22.478C48.6002 22.03 48.4322 21.6847 48.1428 21.442C47.8535 21.1993 47.4988 21.078 47.0788 21.078C46.6682 21.078 46.2902 21.204 45.9448 21.456C45.5995 21.708 45.3988 22.0487 45.3428 22.478H48.6468ZM56.1011 25.25C56.8011 25.25 57.4311 24.9 57.9911 24.2L59.2371 25.6C58.2665 26.608 57.2165 27.112 56.0871 27.112C54.9578 27.112 54.0011 26.7573 53.2171 26.048C52.4425 25.3293 52.0551 24.396 52.0551 23.248C52.0551 22.0907 52.4471 21.1527 53.2311 20.434C54.0245 19.706 54.9625 19.342 56.0451 19.342C56.5865 19.342 57.1325 19.454 57.6831 19.678C58.2431 19.902 58.7331 20.2333 59.1531 20.672L58.0611 22.1C57.8185 21.8107 57.5198 21.5867 57.1651 21.428C56.8198 21.2693 56.4745 21.19 56.1291 21.19C55.5785 21.19 55.1025 21.372 54.7011 21.736C54.3091 22.0907 54.1131 22.59 54.1131 23.234C54.1131 23.8687 54.3091 24.3633 54.7011 24.718C55.1025 25.0727 55.5691 25.25 56.1011 25.25ZM63.3436 20.98V24.354C63.3436 24.6433 63.4182 24.872 63.5676 25.04C63.7169 25.1987 63.8942 25.278 64.0996 25.278C64.4916 25.278 64.8229 25.1007 65.0936 24.746L65.8776 26.216C65.2242 26.8133 64.5336 27.112 63.8056 27.112C63.0869 27.112 62.4756 26.874 61.9716 26.398C61.4769 25.922 61.2296 25.2733 61.2296 24.452V20.98H60.3476V19.468H61.2296V17.214H63.3436V19.468H65.1636V20.98H63.3436ZM78.795 22.058C78.795 21.1807 78.515 20.434 77.955 19.818C77.395 19.202 76.7043 18.894 75.883 18.894C75.071 18.894 74.385 19.202 73.825 19.818C73.265 20.434 72.985 21.1807 72.985 22.058C72.985 22.926 73.265 23.668 73.825 24.284C74.385 24.8907 75.071 25.194 75.883 25.194C76.7043 25.194 77.395 24.8907 77.955 24.284C78.515 23.668 78.795 22.926 78.795 22.058ZM79.537 25.656C78.5476 26.6173 77.3296 27.098 75.883 27.098C74.4363 27.098 73.2183 26.6173 72.229 25.656C71.2396 24.6853 70.745 23.4813 70.745 22.044C70.745 20.6067 71.2396 19.4073 72.229 18.446C73.2183 17.4753 74.4363 16.99 75.883 16.99C77.3296 16.99 78.5476 17.4753 79.537 18.446C80.5263 19.4073 81.021 20.6067 81.021 22.044C81.021 23.4813 80.5263 24.6853 79.537 25.656ZM87.2434 19.342C88.1207 19.342 88.9 19.7107 89.5814 20.448C90.272 21.176 90.6174 22.0953 90.6174 23.206C90.6174 24.3167 90.272 25.2453 89.5814 25.992C88.9 26.7387 88.0974 27.112 87.1734 27.112C86.2587 27.112 85.5214 26.7433 84.9614 26.006V29.716H82.8614V19.468H84.9614V20.308C85.6054 19.664 86.366 19.342 87.2434 19.342ZM84.9334 23.248C84.9334 23.8547 85.1014 24.354 85.4374 24.746C85.7827 25.1287 86.198 25.32 86.6834 25.32C87.1687 25.32 87.5934 25.1287 87.9574 24.746C88.3214 24.354 88.5034 23.8547 88.5034 23.248C88.5034 22.6413 88.326 22.1327 87.9714 21.722C87.6167 21.3113 87.192 21.106 86.6974 21.106C86.2027 21.106 85.7827 21.3113 85.4374 21.722C85.1014 22.1233 84.9334 22.632 84.9334 23.248ZM94.7686 20.98V24.354C94.7686 24.6433 94.8432 24.872 94.9926 25.04C95.1419 25.1987 95.3192 25.278 95.5246 25.278C95.9166 25.278 96.2479 25.1007 96.5186 24.746L97.3026 26.216C96.6492 26.8133 95.9586 27.112 95.2306 27.112C94.5119 27.112 93.9006 26.874 93.3966 26.398C92.9019 25.922 92.6546 25.2733 92.6546 24.452V20.98H91.7726V19.468H92.6546V17.214H94.7686V19.468H96.5886V20.98H94.7686ZM100.729 27H98.6286V19.468H100.729V27ZM98.7966 18.516C98.5632 18.2733 98.4466 17.9793 98.4466 17.634C98.4466 17.2887 98.5632 16.9993 98.7966 16.766C99.0392 16.5233 99.3332 16.402 99.6786 16.402C100.024 16.402 100.313 16.5233 100.547 16.766C100.789 16.9993 100.911 17.2887 100.911 17.634C100.911 17.9793 100.789 18.2733 100.547 18.516C100.313 18.7493 100.024 18.866 99.6786 18.866C99.3332 18.866 99.0392 18.7493 98.7966 18.516ZM104.596 23.234C104.596 23.85 104.769 24.354 105.114 24.746C105.469 25.1287 105.917 25.32 106.458 25.32C107.009 25.32 107.457 25.1287 107.802 24.746C108.157 24.354 108.334 23.85 108.334 23.234C108.334 22.618 108.157 22.114 107.802 21.722C107.457 21.33 107.009 21.134 106.458 21.134C105.917 21.134 105.469 21.33 105.114 21.722C104.769 22.114 104.596 22.618 104.596 23.234ZM110.448 23.234C110.448 24.326 110.07 25.2453 109.314 25.992C108.558 26.7387 107.606 27.112 106.458 27.112C105.32 27.112 104.372 26.7387 103.616 25.992C102.86 25.2453 102.482 24.326 102.482 23.234C102.482 22.142 102.86 21.2227 103.616 20.476C104.372 19.72 105.32 19.342 106.458 19.342C107.606 19.342 108.558 19.72 109.314 20.476C110.07 21.2227 110.448 22.142 110.448 23.234ZM114.308 22.8V27H112.208V19.468H114.308V20.308C114.943 19.664 115.657 19.342 116.45 19.342C117.244 19.342 117.906 19.622 118.438 20.182C118.98 20.742 119.25 21.4887 119.25 22.422V27H117.15V22.744C117.15 21.5867 116.726 21.008 115.876 21.008C115.456 21.008 115.088 21.162 114.77 21.47C114.462 21.7687 114.308 22.212 114.308 22.8ZM127.02 24.662C127.02 25.3993 126.744 25.992 126.194 26.44C125.652 26.888 124.962 27.112 124.122 27.112C123.562 27.112 122.978 27.014 122.372 26.818C121.765 26.6127 121.219 26.314 120.734 25.922L121.658 24.606C122.442 25.2127 123.277 25.516 124.164 25.516C124.434 25.516 124.649 25.4647 124.808 25.362C124.966 25.25 125.046 25.1053 125.046 24.928C125.046 24.7507 124.934 24.5873 124.71 24.438C124.495 24.2887 124.178 24.1487 123.758 24.018C123.347 23.8873 123.03 23.7753 122.806 23.682C122.591 23.5887 122.344 23.4533 122.064 23.276C121.494 22.9213 121.21 22.3987 121.21 21.708C121.21 21.008 121.49 20.4387 122.05 20C122.61 19.5613 123.333 19.342 124.22 19.342C125.106 19.342 125.993 19.6407 126.88 20.238L126.096 21.638C125.442 21.19 124.789 20.966 124.136 20.966C123.492 20.966 123.17 21.1433 123.17 21.498C123.17 21.694 123.272 21.848 123.478 21.96C123.683 22.072 124.024 22.2027 124.5 22.352C124.976 22.5013 125.312 22.618 125.508 22.702C125.713 22.7767 125.956 22.898 126.236 23.066C126.758 23.3833 127.02 23.9153 127.02 24.662Z" fill="white"/>
</svg>
