<svg width="189" height="54" viewBox="0 0 189 54" fill="none" xmlns="http://www.w3.org/2000/svg">
<rect x="0.5" y="0.5" width="188" height="53" rx="26.5" stroke="#23A6F0"/>
<path d="M40.5696 23.908C40.2056 23.908 39.9163 23.9967 39.7016 24.174C39.4963 24.342 39.3936 24.5707 39.3936 24.86C39.3936 25.14 39.5196 25.364 39.7716 25.532C40.033 25.7 40.6256 25.9007 41.5496 26.134C42.483 26.358 43.2063 26.6987 43.7196 27.156C44.233 27.6133 44.4896 28.2807 44.4896 29.158C44.4896 30.0353 44.1583 30.7493 43.4956 31.3C42.8423 31.8413 41.979 32.112 40.9056 32.112C39.3563 32.112 37.961 31.538 36.7196 30.39L38.0216 28.794C39.0763 29.718 40.0516 30.18 40.9476 30.18C41.349 30.18 41.6616 30.096 41.8856 29.928C42.119 29.7507 42.2356 29.5173 42.2356 29.228C42.2356 28.9293 42.1143 28.696 41.8716 28.528C41.629 28.3507 41.1483 28.1733 40.4296 27.996C39.291 27.7253 38.4556 27.3753 37.9236 26.946C37.401 26.5073 37.1396 25.826 37.1396 24.902C37.1396 23.9687 37.471 23.25 38.1336 22.746C38.8056 22.242 39.641 21.99 40.6396 21.99C41.293 21.99 41.9463 22.102 42.5996 22.326C43.253 22.55 43.8223 22.8673 44.3076 23.278L43.2016 24.874C42.3523 24.23 41.475 23.908 40.5696 23.908ZM51.0997 28.528V24.468H53.2137V32H51.0997V31.006C50.577 31.7433 49.9003 32.112 49.0697 32.112C48.2483 32.112 47.5577 31.8553 46.9977 31.342C46.4377 30.8193 46.1577 30.0493 46.1577 29.032V24.468H48.2717V28.57C48.2717 29.7273 48.6963 30.306 49.5457 30.306C49.9657 30.306 50.3297 30.1567 50.6377 29.858C50.9457 29.55 51.0997 29.1067 51.0997 28.528ZM59.7367 24.342C60.6514 24.342 61.4494 24.7013 62.1307 25.42C62.8121 26.1293 63.1527 27.044 63.1527 28.164C63.1527 29.284 62.8027 30.222 62.1027 30.978C61.4027 31.734 60.6047 32.112 59.7087 32.112C58.8221 32.112 58.0847 31.7433 57.4967 31.006V32H55.3967V21.612H57.4967V25.308C58.0754 24.664 58.8221 24.342 59.7367 24.342ZM57.4687 28.248C57.4687 28.8547 57.6367 29.354 57.9727 29.746C58.3181 30.1287 58.7334 30.32 59.2187 30.32C59.7041 30.32 60.1287 30.1287 60.4927 29.746C60.8567 29.354 61.0387 28.8547 61.0387 28.248C61.0387 27.6413 60.8614 27.1327 60.5067 26.722C60.1521 26.3113 59.7274 26.106 59.2327 26.106C58.7381 26.106 58.3181 26.3113 57.9727 26.722C57.6367 27.1233 57.4687 27.632 57.4687 28.248ZM71.837 27.94V32H69.723V27.884C69.723 27.2867 69.6296 26.848 69.443 26.568C69.2656 26.288 68.9716 26.148 68.561 26.148C68.1596 26.148 67.8003 26.302 67.483 26.61C67.175 26.9087 67.021 27.352 67.021 27.94V32H64.921V24.468H67.021V25.322C67.5996 24.6687 68.2623 24.342 69.009 24.342C69.485 24.342 69.9143 24.482 70.297 24.762C70.689 25.042 70.983 25.3827 71.179 25.784C71.4683 25.3267 71.8556 24.972 72.341 24.72C72.8356 24.468 73.3303 24.342 73.825 24.342C74.7116 24.342 75.4256 24.608 75.967 25.14C76.5083 25.6627 76.779 26.4233 76.779 27.422V32H74.665V27.884C74.665 26.7267 74.2403 26.148 73.391 26.148C72.971 26.148 72.607 26.302 72.299 26.61C71.991 26.9087 71.837 27.352 71.837 27.94ZM80.9885 32H78.8885V24.468H80.9885V32ZM79.0565 23.516C78.8232 23.2733 78.7065 22.9793 78.7065 22.634C78.7065 22.2887 78.8232 21.9993 79.0565 21.766C79.2992 21.5233 79.5932 21.402 79.9385 21.402C80.2839 21.402 80.5732 21.5233 80.8065 21.766C81.0492 21.9993 81.1705 22.2887 81.1705 22.634C81.1705 22.9793 81.0492 23.2733 80.8065 23.516C80.5732 23.7493 80.2839 23.866 79.9385 23.866C79.5932 23.866 79.2992 23.7493 79.0565 23.516ZM85.6824 25.98V29.354C85.6824 29.6433 85.7571 29.872 85.9064 30.04C86.0558 30.1987 86.2331 30.278 86.4384 30.278C86.8304 30.278 87.1618 30.1007 87.4324 29.746L88.2164 31.216C87.5631 31.8133 86.8724 32.112 86.1444 32.112C85.4258 32.112 84.8144 31.874 84.3104 31.398C83.8158 30.922 83.5684 30.2733 83.5684 29.452V25.98H82.6864V24.468H83.5684V22.214H85.6824V24.468H87.5024V25.98H85.6824ZM101.582 25.462C101.582 27.03 100.961 28.0427 99.7198 28.5L102.198 32H99.5098L97.3398 28.878H95.8278V32H93.6438V22.214H97.3538C98.8752 22.214 99.9578 22.4707 100.602 22.984C101.255 23.4973 101.582 24.3233 101.582 25.462ZM97.4238 26.988C98.1705 26.988 98.6792 26.8667 98.9498 26.624C99.2205 26.3813 99.3558 25.9987 99.3558 25.476C99.3558 24.944 99.2158 24.58 98.9358 24.384C98.6558 24.188 98.1658 24.09 97.4658 24.09H95.8278V26.988H97.4238ZM110.33 30.908C109.48 31.7107 108.482 32.112 107.334 32.112C106.195 32.112 105.252 31.762 104.506 31.062C103.759 30.3527 103.386 29.4053 103.386 28.22C103.386 27.0347 103.764 26.092 104.52 25.392C105.285 24.692 106.186 24.342 107.222 24.342C108.258 24.342 109.135 24.6547 109.854 25.28C110.582 25.9053 110.946 26.764 110.946 27.856V28.976H105.458C105.523 29.3867 105.738 29.7227 106.102 29.984C106.466 30.2453 106.876 30.376 107.334 30.376C108.071 30.376 108.678 30.1287 109.154 29.634L110.33 30.908ZM108.818 27.478C108.771 27.03 108.603 26.6847 108.314 26.442C108.024 26.1993 107.67 26.078 107.25 26.078C106.839 26.078 106.461 26.204 106.116 26.456C105.77 26.708 105.57 27.0487 105.514 27.478H108.818ZM115.838 32.112C114.877 32.112 114.037 31.7527 113.318 31.034C112.599 30.306 112.24 29.3773 112.24 28.248C112.24 27.1093 112.59 26.176 113.29 25.448C113.99 24.7107 114.769 24.342 115.628 24.342C116.487 24.342 117.238 24.664 117.882 25.308V24.468H119.996V34.716H117.882V31.398C117.285 31.874 116.603 32.112 115.838 32.112ZM114.354 28.248C114.354 28.8547 114.536 29.354 114.9 29.746C115.264 30.1287 115.689 30.32 116.174 30.32C116.659 30.32 117.07 30.1287 117.406 29.746C117.742 29.354 117.91 28.8547 117.91 28.248C117.91 27.632 117.742 27.1233 117.406 26.722C117.07 26.3113 116.655 26.106 116.16 26.106C115.665 26.106 115.241 26.3113 114.886 26.722C114.531 27.1233 114.354 27.632 114.354 28.248ZM127.042 28.528V24.468H129.156V32H127.042V31.006C126.52 31.7433 125.843 32.112 125.012 32.112C124.191 32.112 123.5 31.8553 122.94 31.342C122.38 30.8193 122.1 30.0493 122.1 29.032V24.468H124.214V28.57C124.214 29.7273 124.639 30.306 125.488 30.306C125.908 30.306 126.272 30.1567 126.58 29.858C126.888 29.55 127.042 29.1067 127.042 28.528ZM137.863 30.908C137.014 31.7107 136.015 32.112 134.867 32.112C133.729 32.112 132.786 31.762 132.039 31.062C131.293 30.3527 130.919 29.4053 130.919 28.22C130.919 27.0347 131.297 26.092 132.053 25.392C132.819 24.692 133.719 24.342 134.755 24.342C135.791 24.342 136.669 24.6547 137.387 25.28C138.115 25.9053 138.479 26.764 138.479 27.856V28.976H132.991C133.057 29.3867 133.271 29.7227 133.635 29.984C133.999 30.2453 134.41 30.376 134.867 30.376C135.605 30.376 136.211 30.1287 136.687 29.634L137.863 30.908ZM136.351 27.478C136.305 27.03 136.137 26.6847 135.847 26.442C135.558 26.1993 135.203 26.078 134.783 26.078C134.373 26.078 133.995 26.204 133.649 26.456C133.304 26.708 133.103 27.0487 133.047 27.478H136.351ZM145.864 29.662C145.864 30.3993 145.588 30.992 145.038 31.44C144.496 31.888 143.806 32.112 142.966 32.112C142.406 32.112 141.822 32.014 141.216 31.818C140.609 31.6127 140.063 31.314 139.578 30.922L140.502 29.606C141.286 30.2127 142.121 30.516 143.008 30.516C143.278 30.516 143.493 30.4647 143.652 30.362C143.81 30.25 143.89 30.1053 143.89 29.928C143.89 29.7507 143.778 29.5873 143.554 29.438C143.339 29.2887 143.022 29.1487 142.602 29.018C142.191 28.8873 141.874 28.7753 141.65 28.682C141.435 28.5887 141.188 28.4533 140.908 28.276C140.338 27.9213 140.054 27.3987 140.054 26.708C140.054 26.008 140.334 25.4387 140.894 25C141.454 24.5613 142.177 24.342 143.064 24.342C143.95 24.342 144.837 24.6407 145.724 25.238L144.94 26.638C144.286 26.19 143.633 25.966 142.98 25.966C142.336 25.966 142.014 26.1433 142.014 26.498C142.014 26.694 142.116 26.848 142.322 26.96C142.527 27.072 142.868 27.2027 143.344 27.352C143.82 27.5013 144.156 27.618 144.352 27.702C144.557 27.7767 144.8 27.898 145.08 28.066C145.602 28.3833 145.864 28.9153 145.864 29.662ZM150.118 25.98V29.354C150.118 29.6433 150.193 29.872 150.342 30.04C150.492 30.1987 150.669 30.278 150.874 30.278C151.266 30.278 151.598 30.1007 151.868 29.746L152.652 31.216C151.999 31.8133 151.308 32.112 150.58 32.112C149.862 32.112 149.25 31.874 148.746 31.398C148.252 30.922 148.004 30.2733 148.004 29.452V25.98H147.122V24.468H148.004V22.214H150.118V24.468H151.938V25.98H150.118Z" fill="#23A6F0"/>
</svg>
