<svg width="186" height="52" viewBox="0 0 186 52" fill="none" xmlns="http://www.w3.org/2000/svg">
<rect width="186" height="52" rx="5" fill="#23A6F0"/>
<path d="M45.405 23.104V31H43.221V23.104H40.449V21.214H48.177V23.104H45.405ZM53.7306 25.316C53.1053 25.316 52.6386 25.54 52.3306 25.988C52.0226 26.4267 51.8686 27.01 51.8686 27.738V31H49.7686V23.468H51.8686V24.462C52.1393 24.154 52.4753 23.8927 52.8766 23.678C53.2873 23.4633 53.7026 23.3513 54.1226 23.342L54.1366 25.316H53.7306ZM57.0265 33.968C56.2891 33.968 55.5938 33.6693 54.9405 33.072L55.8925 31.518C56.2471 31.8633 56.6111 32.036 56.9845 32.036C57.1805 32.036 57.3485 31.938 57.4885 31.742C57.6285 31.5553 57.6985 31.3547 57.6985 31.14C57.6985 30.9253 56.7278 28.368 54.7865 23.468H57.0265L58.8605 28.158L60.6945 23.468H62.9345L59.4345 32.344C59.2291 32.8573 58.9071 33.254 58.4685 33.534C58.0391 33.8233 57.5585 33.968 57.0265 33.968ZM70.1737 31H68.0737V23.468H70.1737V31ZM68.2417 22.516C68.0084 22.2733 67.8917 21.9793 67.8917 21.634C67.8917 21.2887 68.0084 20.9993 68.2417 20.766C68.4844 20.5233 68.7784 20.402 69.1237 20.402C69.469 20.402 69.7584 20.5233 69.9917 20.766C70.2344 20.9993 70.3557 21.2887 70.3557 21.634C70.3557 21.9793 70.2344 22.2733 69.9917 22.516C69.7584 22.7493 69.469 22.866 69.1237 22.866C68.7784 22.866 68.4844 22.7493 68.2417 22.516ZM74.8676 24.98V28.354C74.8676 28.6433 74.9422 28.872 75.0916 29.04C75.2409 29.1987 75.4182 29.278 75.6236 29.278C76.0156 29.278 76.3469 29.1007 76.6176 28.746L77.4016 30.216C76.7482 30.8133 76.0576 31.112 75.3296 31.112C74.6109 31.112 73.9996 30.874 73.4956 30.398C73.0009 29.922 72.7536 29.2733 72.7536 28.452V24.98H71.8716V23.468H72.7536V21.214H74.8676V23.468H76.6876V24.98H74.8676ZM85.125 23.034V23.538H86.945V25.05H85.125V31H83.011V25.05H82.129V23.538H83.011V23.076C83.011 22.2547 83.2583 21.606 83.753 21.13C84.257 20.6447 84.8777 20.402 85.615 20.402C86.3617 20.402 87.0383 20.682 87.645 21.242L86.889 22.656C86.581 22.3013 86.2403 22.124 85.867 22.124C85.6523 22.124 85.475 22.2033 85.335 22.362C85.195 22.5113 85.125 22.7353 85.125 23.034ZM92.4138 25.316C91.7885 25.316 91.3218 25.54 91.0138 25.988C90.7058 26.4267 90.5518 27.01 90.5518 27.738V31H88.4518V23.468H90.5518V24.462C90.8225 24.154 91.1585 23.8927 91.5598 23.678C91.9705 23.4633 92.3858 23.3513 92.8058 23.342L92.8198 25.316H92.4138ZM100.932 29.908C100.082 30.7107 99.0837 31.112 97.9357 31.112C96.797 31.112 95.8543 30.762 95.1077 30.062C94.361 29.3527 93.9877 28.4053 93.9877 27.22C93.9877 26.0347 94.3657 25.092 95.1217 24.392C95.887 23.692 96.7877 23.342 97.8237 23.342C98.8597 23.342 99.737 23.6547 100.456 24.28C101.184 24.9053 101.548 25.764 101.548 26.856V27.976H96.0597C96.125 28.3867 96.3397 28.7227 96.7037 28.984C97.0677 29.2453 97.4783 29.376 97.9357 29.376C98.673 29.376 99.2797 29.1287 99.7557 28.634L100.932 29.908ZM99.4197 26.478C99.373 26.03 99.205 25.6847 98.9157 25.442C98.6263 25.1993 98.2717 25.078 97.8517 25.078C97.441 25.078 97.063 25.204 96.7177 25.456C96.3723 25.708 96.1717 26.0487 96.1157 26.478H99.4197ZM109.786 29.908C108.937 30.7107 107.938 31.112 106.79 31.112C105.651 31.112 104.709 30.762 103.962 30.062C103.215 29.3527 102.842 28.4053 102.842 27.22C102.842 26.0347 103.22 25.092 103.976 24.392C104.741 23.692 105.642 23.342 106.678 23.342C107.714 23.342 108.591 23.6547 109.31 24.28C110.038 24.9053 110.402 25.764 110.402 26.856V27.976H104.914C104.979 28.3867 105.194 28.7227 105.558 28.984C105.922 29.2453 106.333 29.376 106.79 29.376C107.527 29.376 108.134 29.1287 108.61 28.634L109.786 29.908ZM108.274 26.478C108.227 26.03 108.059 25.6847 107.77 25.442C107.481 25.1993 107.126 25.078 106.706 25.078C106.295 25.078 105.917 25.204 105.572 25.456C105.227 25.708 105.026 26.0487 104.97 26.478H108.274ZM118.108 26.8V31H116.008V23.468H118.108V24.308C118.742 23.664 119.456 23.342 120.25 23.342C121.043 23.342 121.706 23.622 122.238 24.182C122.779 24.742 123.05 25.4887 123.05 26.422V31H120.95V26.744C120.95 25.5867 120.525 25.008 119.676 25.008C119.256 25.008 118.887 25.162 118.57 25.47C118.262 25.7687 118.108 26.212 118.108 26.8ZM126.829 27.234C126.829 27.85 127.002 28.354 127.347 28.746C127.702 29.1287 128.15 29.32 128.691 29.32C129.242 29.32 129.69 29.1287 130.035 28.746C130.39 28.354 130.567 27.85 130.567 27.234C130.567 26.618 130.39 26.114 130.035 25.722C129.69 25.33 129.242 25.134 128.691 25.134C128.15 25.134 127.702 25.33 127.347 25.722C127.002 26.114 126.829 26.618 126.829 27.234ZM132.681 27.234C132.681 28.326 132.303 29.2453 131.547 29.992C130.791 30.7387 129.839 31.112 128.691 31.112C127.552 31.112 126.605 30.7387 125.849 29.992C125.093 29.2453 124.715 28.326 124.715 27.234C124.715 26.142 125.093 25.2227 125.849 24.476C126.605 23.72 127.552 23.342 128.691 23.342C129.839 23.342 130.791 23.72 131.547 24.476C132.303 25.2227 132.681 26.142 132.681 27.234ZM138.224 31H136.054L133.492 23.468H135.662L137.132 28.018L138.602 23.468H140.632L142.102 28.018L143.572 23.468H145.756L143.194 31H141.01L139.624 26.898L138.224 31Z" fill="white"/>
</svg>
